<?xml version="1.0" encoding="utf-8"?>
<!-- Generator: Adobe Illustrator 22.1.0, SVG Export Plug-In . SVG Version: 6.00 Build 0)  -->
<svg version="1.1" id="Layer_1" xmlns="http://www.w3.org/2000/svg" xmlns:xlink="http://www.w3.org/1999/xlink" x="0px" y="0px"
	 viewBox="0 0 32 32" style="enable-background:new 0 0 32 32;" xml:space="preserve">
<title>node-red</title>
<path d="M4,0C1.8,0,0,1.8,0,4v8.1h3.8c1.5,0,2.6,1.2,2.6,2.6v0c1.1-0.1,1.8-0.5,2.2-0.9c0.6-0.5,0.9-1.2,1.4-2s0.9-1.7,1.9-2.3
	c0.8-0.5,1.8-0.9,3.2-0.9V8.1c0-1.5,1.2-2.6,2.6-2.6h10.5c1.5,0,2.6,1.2,2.6,2.6v2.6c0,1.5-1.2,2.7-2.6,2.7H17.7
	c-1.5,0-2.6-1.3-2.6-2.7V10c-1.1,0-1.9,0.3-2.4,0.7c-0.6,0.4-1,1.1-1.4,1.8c-0.4,0.8-0.8,1.6-1.6,2.4L9.5,15c4.1,0.6,6,2.1,7.5,3.5
	c1.8,1.6,3.3,3,8.4,3.1v-0.6c0-1.5,1.2-2.6,2.7-2.6H32V4c0-2.2-1.8-4-4-4L4,0z M17.7,7.2c-0.5,0-0.9,0.4-0.9,0.8v2.6
	c0,0.5,0.4,0.8,0.9,0.8h10.5c0.5,0,0.9-0.4,0.8-0.8V8.1c0-0.5-0.4-0.9-0.8-0.8L17.7,7.2z M0,13.9v4.4h3.8c0.5,0,0.9-0.4,0.9-0.9
	v-2.6c0-0.5-0.4-0.8-0.9-0.8H0z M6.4,16.2v1.2c0,1.5-1.2,2.6-2.6,2.6H0v8c0,2.2,1.8,4,4,4h24c2.2,0,4-1.8,4-4v-1.9h-3.9
	c-1.5,0-2.7-1.2-2.7-2.7v-0.6c-5.4,0-7.5-1.8-9.3-3.4C14.2,17.8,12.5,16.2,6.4,16.2L6.4,16.2z M28.1,20c-0.5,0-0.9,0.4-0.9,0.9v2.6
	c0,0.5,0.4,0.8,0.9,0.8H32V20L28.1,20z"/>
</svg>
